<!--?xml version="1.0" encoding="utf-8"?-->
<!-- Generator: Adobe Illustrator 19.1.1, SVG Export Plug-In . SVG Version: 6.00 Build 0)  -->
<svg version="1.1" id="_x31_0" xmlns="http://www.w3.org/2000/svg" xmlns:xlink="http://www.w3.org/1999/xlink" x="0px" y="0px" viewBox="0 0 512 512" style="width: 256px; height: 256px; opacity: 1;" xml:space="preserve">
<style type="text/css">
	.st0{fill:#374149;}
</style>
<g>
	<path class="st0" d="M477.465,172.66c-12.25-5.21-47.168-15.336-93.175-23.343l-47.844-133.79C333.066,6.172,324.289,0,314.356,0
		H197.641c-9.938,0-18.711,6.172-22.09,15.527l-47.844,133.79c-45.914,8.007-80.926,18.133-93.176,23.343
		c-15.16,6.485,6.465,23.078,54.07,36.778c2.649,0.77,5.394,1.539,8.234,2.301c-11.473,29.613-17.164,66.359-14.172,111.394
		c6.848,103.211,37.906,161.473,50.641,181.438c2.602,4.05,8.485,4.344,11.477,0.582l30.738-37.55l0.613-0.742
		c7.234,6.172,15.047,11.668,23.149,16.492c13.504,7.91,28.453,13.309,43.789,15.434C247.027,506.5,251.754,512,256.093,512
		c4.246,0,8.875-5.5,12.829-13.215c15.434-2.125,30.289-7.523,43.89-15.434c8.199-4.824,16.012-10.32,23.148-16.496l31.254,38.297
		c3.086,3.762,8.969,3.469,11.574-0.582c12.734-20.062,43.695-78.226,50.64-181.438c2.938-44.23-2.625-80.422-13.695-109.754
		c-0.199-0.543-0.363-1.118-0.57-1.657C468.496,197.641,493.477,179.508,477.465,172.66z M209.496,27.137l-21.308,88.226
		l-6.367,26.332l-1.641,6.848c-0.578,2.414-2.699,4.148-5.207,4.246l-16.11,0.676c-3.953,0.191-6.847-3.664-5.496-7.43l0.29-0.867
		l4.531-13.019h0.098l35.496-101.282c0.867-2.317,2.894-3.762,5.305-3.762h8.609L209.496,27.137z M276.261,475.566
		c0.57-3.836,0.762-7.477,0.473-10.734c-0.961-12.539-8.871-21.898-10.031-26.332c-0.867-3.707,3.688-8.766,5.402-10.516
		c0.34-0.301,0.61-0.515,0.676-0.515h-0.164c0.058-0.058,0.164-0.16,0.164-0.16h-33.566c0,0,7.234,6.656,6.074,11.191
		c-1.157,4.434-9.066,13.793-10.031,26.332c-0.25,2.855-0.078,6.043,0.335,9.359c0.043,0.489,0.051,0.922,0.102,1.43
		c-17.152-3.961-33.054-12.441-47.121-23.906c-36.172-29.711-59.805-79.29-60.094-122.118c0.098-28.07,0.48-56.043,1.347-84.015
		l12.254-24.114l5.207-10.226c1.64-3.375,5.015-5.402,8.679-5.402h200.055c3.667,0,7.14,2.027,8.777,5.402l5.114,10.226
		l12.347,24.305c0.77,27.878,1.254,55.851,1.254,83.824c-0.29,42.828-23.825,92.406-59.996,122.118
		c-12.707,10.351-26.965,18.082-42.297,22.434C279.562,474.602,277.933,475.199,276.261,475.566z" style="fill: rgb(75, 75, 75);"></path>
	<path class="st0" d="M287.539,289.664c2.027,0.481,4.051,0.867,5.981,1.254c9.262,1.93,17.554,2.895,24.984,2.895
		c12.926,0,22.957-2.895,31.25-8.778l2.703-1.836l-1.063-3.18c-0.578-1.836-4.918-11.289-30-11.965
		c-15.336-0.382-24.98,4.438-30.574,8.782c-4.051,3.086-5.887,5.882-6.078,6.172l-2.461,3.793l-0.879,1.258l0.055,0.016l-0.09,0.141
		L287.539,289.664z" style="fill: rgb(75, 75, 75);"></path>
	<path class="st0" d="M227.348,283.008c-0.191-0.29-2.023-3.086-6.074-6.172c-5.594-4.344-15.336-9.164-30.578-8.782
		c-25.175,0.676-29.515,10.129-30.094,11.965l-1.062,3.18l2.703,1.836c8.293,5.882,18.422,8.778,31.348,8.778
		c1.66,0,3.562-0.23,5.328-0.329c0.23-0.015,0.469-0.027,0.703-0.042c5.824-0.371,12.023-1.09,19.046-2.524
		c1.93-0.386,3.957-0.773,5.981-1.254l4.402-1.066l1.441-0.297l-0.027-0.043l0.164-0.042L227.348,283.008z" style="fill: rgb(75, 75, 75);"></path>
	<path class="st0" d="M281.75,265.55c2.316,0,4.633-0.675,6.562-2.027c0.867-0.48,1.641-1.062,2.312-1.832l0.578-0.675
		c0.485-0.387,1.062-1.063,1.93-1.833c1.641-1.542,4.246-3.957,7.622-6.562c1.542-1.156,3.281-2.41,5.5-3.953
		c2.121-1.351,4.144-2.699,6.461-3.953c2.027-1.161,4.34-2.317,7.043-3.473c0.382-0.098,0.769-0.29,1.156-0.387
		c0.867-0.386,1.734-0.773,2.606-0.965l1.93-0.675l2.023-0.481c0.774-0.289,1.45-0.386,2.317-0.578c0.48,0,0.965-0.098,1.445-0.195
		c0.485-0.098,0.867-0.191,1.352-0.191c0.773-0.098,1.542-0.195,2.312-0.289h0.195c1.254,0,2.41-0.098,3.57,0
		c0.29,0,0.481,0,0.77,0.094h0.965l2.797,0.386l2.703,0.676c0.578,0.098,1.254,0.386,1.93,0.578
		c0.481,0.195,0.867,0.386,1.348,0.484c0.578,0.289,1.156,0.578,1.738,0.867c0.48,0.191,0.867,0.386,1.25,0.481
		c0.485,0.293,0.969,0.582,1.547,0.965c0.382,0.195,0.77,0.484,1.156,0.675c0.578,0.29,1.157,0.676,1.734,1.161l0.485,0.382
		c0.289,0.195,0.675,0.485,0.965,0.676c0.386,0.289,0.867,0.578,1.156,0.867c0.484,0.484,0.965,0.871,1.45,1.351
		c0.769,0.578,1.347,1.157,1.832,1.738l2.988,3.086c1.543,1.542,3.859,1.832,5.789,0.671c2.024-1.445,2.602-4.339,1.157-6.363
		l-2.41-3.57c-0.676-0.965-1.352-1.832-2.121-2.797c-0.387-0.386-0.774-0.867-1.161-1.351c-0.48-0.676-1.058-1.254-1.637-1.832
		l-1.258-1.254c-0.672-0.675-1.445-1.445-2.312-2.121c-0.387-0.289-0.676-0.578-0.966-0.774c-0.675-0.578-1.449-1.254-2.316-1.832
		c-0.383-0.289-0.77-0.48-1.058-0.77c-0.871-0.484-1.641-1.062-2.606-1.64l-0.098-0.098c-0.481-0.191-0.867-0.386-1.254-0.578
		c-0.965-0.578-1.832-1.062-2.988-1.543l-3.281-1.351l-3.665-1.157c-0.675-0.098-1.254-0.289-1.93-0.386
		c-0.191-0.098-0.48-0.098-0.675-0.191c-1.832-0.387-3.762-0.578-5.305-0.774c-1.352-0.191-2.508-0.191-3.664-0.191
		c-0.582,0-1.062,0-1.547-0.098h-0.289c-0.578,0.098-1.157,0.098-1.637,0.098c-1.254,0-2.414,0.098-3.668,0.191l-2.602,0.289
		l-1.738,0.29l-0.77,0.098c-1.351,0.191-2.606,0.48-3.859,0.773l-1.351,0.383c-3.57,0.871-6.75,1.832-9.547,2.894
		c-1.93,0.676-3.766,1.446-5.5,2.218c-1.062,0.485-2.121,0.867-3.086,1.352c-2.894,1.446-5.21,2.602-7.234,3.762
		c-2.028,1.058-3.86,2.219-5.402,3.184c-2.219,1.347-3.954,2.507-5.207,3.374c-1.258,0.867-2.219,1.641-2.894,2.122l-1.161,0.871
		c-0.48,0.382-0.867,0.769-1.347,1.25c-2.219,2.414-3.379,5.5-3.282,8.586c0.098,3.282,1.45,6.27,3.86,8.489
		C275.773,264.39,278.761,265.55,281.75,265.55z" style="fill: rgb(75, 75, 75);"></path>
	<path class="st0" d="M143.527,253.297c1.157,0,2.317-0.48,3.086-1.347l2.992-3.184c0.481-0.484,1.156-1.062,1.832-1.641
		c0.481-0.48,0.965-0.867,1.543-1.351c0.289-0.29,0.676-0.578,1.062-0.867c0.289-0.191,0.676-0.481,0.867-0.676l0.578-0.382
		c0.578-0.485,1.156-0.871,1.738-1.161c0.383-0.191,0.77-0.48,1.157-0.675c0.578-0.383,1.058-0.672,1.445-0.867
		c0.387-0.192,0.867-0.387,1.254-0.578c0.578-0.289,1.16-0.578,1.832-0.867c0.386-0.098,0.871-0.289,1.254-0.484
		c0.676-0.192,1.352-0.481,1.93-0.578l2.703-0.676l2.797-0.386h0.965c0.29-0.094,0.578-0.094,0.867-0.094
		c1.062-0.098,2.219,0,3.473,0h0.289c0.676,0.094,1.446,0.191,2.317,0.289c0.481,0,0.961,0.094,1.348,0.191
		c0.484,0.098,0.965,0.195,1.449,0.195c0.867,0.192,1.641,0.29,2.41,0.578l1.93,0.481l2.027,0.675
		c0.77,0.192,1.637,0.578,2.508,0.965c0.382,0.098,0.77,0.29,1.058,0.387c2.699,1.156,5.016,2.312,7.137,3.473
		c2.218,1.254,4.246,2.602,6.367,3.953c2.218,1.543,4.05,2.797,5.5,3.953c3.473,2.703,6.074,5.02,7.715,6.562
		c0.867,0.77,1.542,1.446,1.93,1.833l0.578,0.675c0.29,0.29,0.774,0.867,1.45,1.254c0.289,0.191,0.578,0.386,0.867,0.578
		c2.023,1.352,4.242,2.027,6.461,2.027c3.668,0,7.234-1.64,9.649-4.73c4.05-5.304,3.086-12.922-2.219-16.972l-1.062-0.871
		c-0.676-0.481-1.641-1.254-2.894-2.122c-1.254-0.867-2.989-2.027-5.016-3.374c-1.542-0.965-3.374-2.028-5.402-3.184
		c-2.023-1.16-4.438-2.316-7.426-3.762c-0.965-0.485-2.027-0.867-3.086-1.352c-1.738-0.773-3.473-1.542-5.402-2.218
		c-2.894-1.062-6.078-2.023-9.645-2.988l-1.351-0.29c-1.157-0.293-2.41-0.582-3.664-0.773l-0.774-0.098
		c-0.578-0.094-1.254-0.192-1.93-0.29l-2.41-0.289c-1.254-0.094-2.508-0.191-3.762-0.191c-0.485,0-1.062,0-1.641-0.098h-0.289
		c-0.481,0.098-0.965,0.098-1.543,0.098c-1.156,0-2.414,0-3.664,0.191c-1.641,0.195-3.477,0.386-5.309,0.774
		c-0.289,0.094-0.48,0.094-0.77,0.191c-0.675,0.098-1.254,0.289-1.832,0.386l-3.473,1.062l-0.289,0.094l-3.281,1.351
		c-1.063,0.481-2.024,0.965-2.895,1.543c-0.386,0.191-0.77,0.386-1.254,0.578l-0.094,0.098c-0.965,0.578-1.738,1.156-2.606,1.64
		c-0.289,0.29-0.676,0.481-1.062,0.77c-0.867,0.578-1.641,1.254-2.317,1.832c-0.289,0.195-0.578,0.485-0.867,0.676
		c-0.965,0.774-1.734,1.543-2.41,2.218l-0.481,0.578c-0.289,0.195-0.582,0.485-0.774,0.676c-0.578,0.578-1.156,1.156-1.641,1.738
		c-0.386,0.578-0.769,1.058-1.156,1.445c-0.867,0.965-1.543,1.832-2.121,2.699l-2.508,3.668c-1.254,1.832-0.965,4.34,0.676,5.883
		C141.117,253.008,142.273,253.297,143.527,253.297z" style="fill: rgb(75, 75, 75);"></path>
	<path class="st0" d="M249.344,342.813c0.867-45.145,1.058-45.145,1.058-69.161l-10.378-3.023l-4.703-1.446l0.015,0.082l-0.172-0.05
		L249.344,342.813z" style="fill: rgb(75, 75, 75);"></path>
	<path class="st0" d="M357.473,357.762c0.191-0.094,0.289-0.094,0.481-0.191c1.062-0.485,2.218-0.965,3.281-1.641l0.77-0.48
		l0.387-0.29l0.195-0.098l0.094-0.098l0.195-0.191h0.094l1.16-0.871l0.578-0.481l0.676-0.578l1.347-1.254
		c0.871-0.867,1.543-1.64,2.317-2.507c2.894-3.473,5.113-7.332,6.558-11.094c3.086-7.621,3.859-14.949,3.762-21.027
		c-0.098-3.086-0.386-5.789-0.77-8.297c-0.386-2.41-0.965-4.531-1.542-6.27c-0.485-1.734-1.063-2.988-1.547-3.953
		c-0.289-0.485-0.481-0.867-0.672-1.157c-0.195-0.195-0.293-0.386-0.293-0.386c-0.289-0.289-0.676-0.484-1.156-0.484
		c-0.77,0-1.352,0.675-1.254,1.351v0.676c0,0,0,0.289,0.098,0.965c0,0.77,0,2.023-0.098,3.664c-0.191,1.641-0.386,3.57-0.675,5.789
		c-0.29,2.219-0.77,4.629-1.348,7.332c-1.16,5.207-2.801,11.188-5.691,16.59c-1.45,2.797-3.184,5.304-5.211,7.523
		c-0.481,0.578-1.058,1.058-1.543,1.641l-0.77,0.578l-0.386,0.383l-0.578,0.386l-0.965,0.774l-0.098,0.094h-0.098l-0.191,0.195
		l-0.387,0.192c-0.48,0.386-1.156,0.675-1.734,0.965c-2.414,1.156-5.402,1.832-8.586,2.027c-3.183,0.289-6.465,0.094-9.742-0.289
		c-3.183-0.387-6.367-0.966-9.453-1.543c-3.086-0.676-5.981-1.352-8.684-2.027c-2.699-0.774-5.206-1.446-7.426-2.122
		c-2.218-0.578-4.144-1.16-5.785-1.641c-0.098,0-0.195,0-0.195-0.098c-1.543-0.386-2.699-0.77-3.566-1.058
		c-0.485-0.098-0.774-0.195-0.965-0.289c-0.29-0.098-0.387-0.098-0.387-0.098c-0.676-0.29-1.543,0-1.832,0.675
		c-0.289,0.77,0.094,1.543,0.77,1.833c0,0,0.098,0.098,0.289,0.289c0.098,0.098,0.294,0.289,0.676,0.578
		c0.676,0.578,1.641,1.449,3.086,2.41c0.965,0.582,1.93,1.352,3.09,2.125c0.578,0.481,1.254,0.867,2.023,1.348
		c2.122,1.351,4.438,2.703,7.043,4.054c2.699,1.348,5.594,2.699,8.875,3.954c3.179,1.351,6.652,2.316,10.511,3.183
		c1.18,0.328,2.504,0.512,3.801,0.719c0.594,0.133,1.118,0.266,1.738,0.406l-18.078,20.675h-33.855l-5.371-8.214l-7.77-12.313
		c0-0.008,0.02-0.008,0.02-0.019c1.808-1.661,3.125-2.653,4.406-3.344c0.339-0.152,0.683-0.383,1.034-0.473
		c-0.281,0.93-0.64,1.93-1.101,2.754l4.534,2.507l4.63,2.41c1.449-2.699,4.535-9.547,1.546-14.469
		c-0.965-1.539-3.183-4.047-7.91-4.047c-6.754,0.094-10.902,4.047-14.278,7.137c-3.375,3.278-5.5,5.016-9.454,5.016
		c-4.05,0-6.171-1.738-9.644-5.016c-3.379-3.09-7.524-7.042-14.278-7.137c-4.629,0.094-6.847,2.508-7.714,4.047
		c-3.032,4.832-0.122,11.5,1.449,14.297c0.004,0.008,0.012,0.023,0.016,0.031h0.003c0.024,0.043,0.051,0.102,0.074,0.141l8.426-4.57
		l0.504-0.262c0-0.004,0-0.008,0-0.008l0.137-0.078c-0.422-0.672-0.801-1.598-1.09-2.52c-0.019-0.11-0.058-0.207-0.07-0.32
		c1.695,0.59,3.133,1.82,5.406,3.902c0.094,0.098,0.094,0.098,0.191,0.191l-13.214,20.355h-33.86l-11.523-13.113l-6.602-7.649
		c1.894-0.195,3.789-0.566,5.586-1.039c3.859-0.867,7.332-1.832,10.613-3.183c3.184-1.254,5.981-2.606,8.68-3.954
		c2.606-1.351,5.015-2.703,7.042-4.054c0.672-0.481,1.348-0.867,2.024-1.348c1.156-0.773,2.218-1.542,3.086-2.125
		c1.45-0.961,2.508-1.832,3.184-2.41c0.386-0.29,0.675-0.481,0.773-0.578c0.098-0.191,0.192-0.289,0.192-0.289
		c0.774-0.29,1.062-1.063,0.774-1.833c-0.29-0.675-1.157-0.965-1.833-0.675c0,0-0.098,0-0.386,0.098
		c-0.289,0.094-0.578,0.191-1.062,0.289c-0.77,0.289-1.93,0.578-3.473,1.058c-0.098,0-0.191,0.098-0.289,0.098
		c-1.543,0.481-3.57,1.063-5.786,1.641c-2.218,0.676-4.633,1.348-7.332,2.122c-2.699,0.675-5.594,1.351-8.683,2.027
		c-2.989,0.578-6.27,1.156-9.547,1.543c-3.281,0.382-6.558,0.578-9.742,0.289c-3.086-0.195-6.078-0.871-8.586-2.027
		c-0.481-0.29-1.062-0.578-1.641-0.965l-0.382-0.192l-0.195-0.195h-0.094v-0.094l-1.062-0.774l-0.578-0.386l-0.387-0.383
		l-0.675-0.578c-0.578-0.582-1.157-1.062-1.641-1.641c-2.024-2.219-3.762-4.726-5.207-7.523c-2.894-5.402-4.629-11.383-5.789-16.59
		c-0.578-2.703-1.059-5.113-1.348-7.332c-0.289-2.218-0.484-4.148-0.676-5.789c0-1.641-0.098-2.894,0-3.664c0-0.676,0-0.965,0-0.965
		v-0.676c0.094-0.386-0.098-0.867-0.484-1.062c-0.578-0.481-1.446-0.383-1.93,0.195c0,0-0.094,0.191-0.29,0.386
		c-0.191,0.29-0.386,0.672-0.675,1.157c-0.481,0.965-1.059,2.218-1.543,3.953c-0.578,1.738-1.058,3.859-1.543,6.27
		c-0.382,2.508-0.675,5.211-0.77,8.297c-0.098,6.078,0.676,13.406,3.762,21.027c1.445,3.762,3.664,7.622,6.558,11.094
		c0.77,0.867,1.542,1.64,2.41,2.507l1.352,1.254l0.676,0.578l0.578,0.481l1.157,0.871h0.098l0.191,0.191l0.098,0.098l0.191,0.098
		l0.387,0.29l0.773,0.48c1.059,0.676,2.219,1.156,3.375,1.641c0.098,0.098,0.29,0.098,0.387,0.191l27.199,43.406l16.011,0.578
		l43.695,1.546l11.555-15.078l3.039-3.891l14.343,18.969l43.695-1.546l16.11-0.578L357.473,357.762z" style="fill: rgb(75, 75, 75);"></path>
	<path class="st0" d="M285.321,409.946h-58.551c-2.602,0-3.278,3.57-0.867,4.535c10.031,3.762,20.45,4.437,30.191,4.437
		c9.551,0,19.969-0.675,30.094-4.437C288.601,413.516,287.925,409.946,285.321,409.946z" style="fill: rgb(75, 75, 75);"></path>
	<path class="st0" d="M372.328,262.946l-0.098-0.195c-0.386-0.77-0.675-1.157-0.675-1.157c-0.29-0.48-0.867-0.867-1.543-0.867
		c-0.965,0.094-1.738,0.867-1.738,1.93c0,0,0,0.481,0.098,1.254v0.191c0,0.289,0,0.676,0.098,1.156v1.93c0,0.29,0,0.676-0.098,0.965
		l-0.098,0.965v0.387c-0.094,0.098-0.191,0.386-0.191,0.386c0,0.192-0.098,0.387-0.098,0.578c-0.192,0.386-0.192,0.77-0.383,1.156
		l-0.386,0.867l-0.485,0.774l-0.191,0.386l-0.386,0.383l-0.578,0.676c-0.191,0.195-0.386,0.386-0.578,0.675
		c-0.289,0.196-0.484,0.485-0.773,0.676l-0.77,0.676l-0.774,0.578c-0.289,0.195-0.578,0.386-0.77,0.578
		c-0.289,0.195-0.485,0.289-0.676,0.485c-0.289,0.094-0.484,0.289-0.774,0.382c-0.191,0.195-0.386,0.289-0.578,0.387l-1.062,0.675
		l-0.962,0.485c-0.484,0.289-0.87,0.867-0.87,1.445c0,0.481,0.098,0.965,0.386,1.352c0.386,0.382,0.774,0.578,1.254,0.578h0.676
		c0.191,0,0.481,0,0.77-0.098c0.386,0,0.871-0.098,1.351-0.191l0.485,0.191l0.481,0.387c0.098,0,0.195,0.098,0.289,0.098
		c0.098,0.094,0.195,0.191,0.386,0.289c0.098,0,0.192,0.094,0.29,0.191c0.098,0.098,0.289,0.196,0.386,0.29l0.289,0.195l0.481,0.382
		l0.582,0.578l0.383,0.485l0.386,0.578l0.192,0.485c0.098,0.094,0.098,0.191,0.195,0.382l0.094,0.29l0.098,0.773v0.29
		c0,0.191,0,0.289,0,0.289v0.676c0,0.191,0,0.386-0.098,0.675c0,0.387,0,0.676,0,0.676c0,0.867,0.676,1.543,1.449,1.543
		c0.481,0,0.966-0.289,1.254-0.676c0,0,0.098-0.289,0.289-0.676l0.098-0.098c0-0.094,0.098-0.289,0.191-0.48
		c0.196-0.29,0.29-0.676,0.387-0.965l0.098-0.387c0-0.289,0.191-0.675,0.094-1.062l0.098-0.961c0-0.098-0.098-0.676-0.098-0.676
		c-0.094-0.386-0.191-0.871-0.382-1.351l-0.098-0.191c0-0.196-0.098-0.387-0.29-0.578l-0.386-0.676l-0.191-0.386l-0.294-0.29
		c-0.191-0.195-0.289-0.386-0.48-0.578h-0.098l-0.192-0.289c-0.191-0.196-0.578-0.485-0.867-0.676l-0.195-0.098
		c-0.023-0.024-0.086-0.047-0.121-0.074l-0.023-0.485l0.046-0.019c0.195-0.195,0.485-0.289,0.774-0.484l0.289-0.192
		c0.485-0.386,1.063-0.867,1.543-1.351c0.195-0.094,0.582-0.481,0.582-0.481h0.094c0.289-0.386,0.578-0.675,0.965-1.062l0.484-0.578
		l0.383-0.676l0.871-1.352c0.094-0.289,0.289-0.672,0.382-0.965l0.098-0.382c0.387-0.867,0.578-1.738,0.676-2.508l0.094-0.578
		c0-0.195,0.098-0.386,0.098-0.578v-0.774l-0.098-1.156c0-0.676-0.191-1.352-0.289-1.93c0-0.195-0.094-0.289-0.094-0.484
		l-0.098-0.289c-0.192-0.578-0.29-1.157-0.578-1.641C372.617,263.621,372.422,263.234,372.328,262.946z" style="fill: rgb(75, 75, 75);"></path>
	<path class="st0" d="M138.223,271.434c0.098,0.77,0.289,1.641,0.675,2.508l0.094,0.382c0.196,0.293,0.294,0.676,0.485,1.062
		l0.774,1.254l0.382,0.676l0.578,0.578c0.289,0.387,0.578,0.676,0.965,1.062c0,0,0.386,0.387,0.582,0.481
		c0.48,0.484,1.058,0.965,1.636,1.351l0.29,0.192c0.289,0.195,0.582,0.289,0.871,0.484l0.37,0.187l-0.011,0.016l-0.168,0.086
		c-0.098,0.098-0.289,0.192-0.387,0.29l-0.094,0.098c-0.386,0.191-0.774,0.48-0.969,0.676l-0.289,0.289h-0.094
		c-0.195,0.191-0.29,0.382-0.485,0.578l-0.289,0.29l-0.191,0.386l-0.485,0.77c-0.094,0.098-0.094,0.289-0.191,0.485l-0.098,0.191
		c-0.191,0.48-0.289,0.965-0.386,1.351v0.192l-0.094,0.484v0.383l0.094,0.484c0,0.481,0.098,0.867,0.195,1.156l0.098,0.387
		c0,0.289,0.094,0.675,0.289,0.867c0.094,0.289,0.191,0.484,0.289,0.578v0.098c0.192,0.387,0.387,0.676,0.387,0.676
		c0.289,0.387,0.672,0.676,1.25,0.676c0.871,0,1.45-0.676,1.45-1.543c0,0,0-0.289,0-0.774c0-0.191-0.098-0.386-0.098-0.675
		c0,0,0-0.094,0-0.192v-1.062l0.098-0.48l0.098-0.29c0-0.098,0-0.195,0.094-0.195c0-0.191,0-0.289,0.098-0.48l0.191-0.387
		l0.387-0.578l0.386-0.485l0.29-0.289c0.098-0.094,0.195-0.191,0.386-0.29l0.289-0.289l0.387-0.289
		c0.191-0.094,0.289-0.191,0.382-0.29c0.098-0.098,0.195-0.191,0.29-0.191c0.195-0.098,0.293-0.195,0.386-0.289
		c0.098,0,0.195-0.098,0.289-0.098l0.965-0.578c0.485,0.094,0.965,0.191,1.352,0.191c0.289,0.098,0.578,0.098,0.774,0.098
		c0,0,0.382,0,0.48,0c0.098,0,0.191,0,0.191,0c0.485,0,0.871-0.195,1.258-0.578c0.289-0.387,0.48-0.871,0.382-1.352
		c0-0.578-0.382-1.156-0.867-1.445l-0.965-0.485l-1.062-0.675c-0.191-0.098-0.382-0.192-0.578-0.387
		c-0.289-0.094-0.48-0.289-0.77-0.382c-0.195-0.196-0.386-0.29-0.578-0.485c-0.29-0.191-0.582-0.382-0.871-0.578l-0.676-0.578
		l-0.867-0.676c-0.289-0.191-0.48-0.48-0.77-0.676c-0.195-0.289-0.386-0.48-0.578-0.675l-0.676-0.77l-0.195-0.29l-0.29-0.386
		l-0.48-0.774l-0.485-0.965c-0.098-0.289-0.191-0.672-0.289-1.058c-0.098-0.191-0.191-0.386-0.191-0.578
		c0,0-0.098-0.289-0.098-0.386l-0.098-0.387l-0.094-1.062c-0.098-0.191-0.098-0.578-0.098-0.867v-2.023
		c0.098-0.386,0.098-0.774,0.098-1.062l0.094-0.289v-1.254c0-0.965-0.77-1.738-1.734-1.832c-0.676,0-1.254,0.387-1.543,0.867
		c0,0-0.289,0.387-0.578,1.157l-0.098,0.098c-0.191,0.386-0.386,0.773-0.578,1.062c-0.29,0.578-0.387,1.156-0.578,1.734
		l-0.098,0.289c0,0.195,0,0.289-0.098,0.484c-0.094,0.578-0.29,1.254-0.29,1.833v1.058l-0.094,0.969
		c0.094,0.191,0.094,0.382,0.094,0.578L138.223,271.434z" style="fill: rgb(75, 75, 75);"></path>
</g>
</svg>
