<?xml version="1.0" encoding="UTF-8" standalone="no"?><!DOCTYPE svg PUBLIC "-//W3C//DTD SVG 1.1//EN" "http://www.w3.org/Graphics/SVG/1.1/DTD/svg11.dtd"><svg width="100%" height="100%" viewBox="0 0 61 118" version="1.1" xmlns="http://www.w3.org/2000/svg" xmlns:xlink="http://www.w3.org/1999/xlink" xml:space="preserve" xmlns:serif="http://www.serif.com/" style="fill-rule:evenodd;clip-rule:evenodd;stroke-linejoin:round;stroke-miterlimit:1.41421;"><path id="Shape" d="M0,96.568l11.463,-19.868l5.487,-9.44l21.594,37.465c-10.148,8.26 -23.128,13.275 -37.288,13.275c-0.421,0 -0.839,-0.005 -1.256,-0.014l0,-21.418Zm59.076,-48.368c0.767,3.835 1.18,7.729 1.18,11.8c0,15.399 -5.9,29.323 -15.576,39.825l-28.084,-48.675l-1.711,-2.95l44.191,0Zm-59.076,31.901l0,-0.002l0.001,0l-0.001,0.002Zm57.542,-38.801c-5.428,-17.228 -18.585,-31.034 -35.4,-37.406l-21.594,37.406l56.994,0Zm-57.542,-41.287c0.417,-0.009 0.836,-0.013 1.256,-0.013c4.425,0 8.673,0.531 12.803,1.416l-14.059,24.345l0,-25.748Z" style="fill:#737373;"/></svg>