<?xml version="1.0" encoding="UTF-8"?>
<svg width="118px" height="118px" viewBox="0 0 118 118" version="1.1" xmlns="http://www.w3.org/2000/svg" xmlns:xlink="http://www.w3.org/1999/xlink">
    <!-- Generator: Sketch 51.2 (57519) - http://www.bohemiancoding.com/sketch -->
    <title>Group 6</title>
    <desc>Created with Sketch.</desc>
    <defs></defs>
    <g id="PepChain-Logo" stroke="none" stroke-width="1" fill="none" fill-rule="evenodd">
        <g id="PEP-Green-Full" transform="translate(-42.000000, -41.000000)">
            <g id="Group-6">
                <g id="PEP-Green" fill="#1F5C82">
                    <g id="PEP">
                        <g id="Shape">
                            <path d="M85.66,91.15 L113.803,42.416 C109.673,41.531 105.425,41 101,41 C86.84,41 73.86,46.015 63.712,54.275 L85.306,91.74 L85.66,91.15 L85.66,91.15 Z M157.286,82.3 C151.858,65.072 138.701,51.266 121.886,44.894 L100.292,82.3 L157.286,82.3 L157.286,82.3 Z M158.82,89.2 L114.629,89.2 L116.34,92.15 L144.424,140.825 C154.1,130.323 160,116.399 160,101 C160,96.929 159.587,93.035 158.82,89.2 L158.82,89.2 Z M80.586,100 L57.576,60.175 C47.959,70.677 42,84.601 42,100 C42,104.071 42.413,107.965 43.18,111.8 L87.371,111.8 L80.586,100 L80.586,100 Z M44.714,117.7 C50.142,134.928 63.299,148.734 80.114,155.106 L101.708,117.7 L44.714,117.7 L44.714,117.7 Z M111.207,117.7 L88.197,157.584 C92.327,158.469 96.575,159 101,159 C115.16,159 128.14,153.985 138.288,145.725 L116.694,108.26 L111.207,117.7 L111.207,117.7 Z"></path>
                        </g>
                    </g>
                </g>
                <g id="Group-12" transform="translate(76.000000, 51.000000)"></g>
            </g>
        </g>
    </g>
</svg>