<?xml version="1.0" encoding="UTF-8"?>
<svg width="377px" height="59px" viewBox="0 0 377 59" version="1.1" xmlns="http://www.w3.org/2000/svg" xmlns:xlink="http://www.w3.org/1999/xlink">
    <!-- Generator: Sketch 51.2 (57519) - http://www.bohemiancoding.com/sketch -->
    <title>Group</title>
    <desc>Created with Sketch.</desc>
    <defs></defs>
    <g id="PepChain-Logo" stroke="none" stroke-width="1" fill="none" fill-rule="evenodd">
        <g id="PEP-Green-Full" transform="translate(-179.000000, -69.000000)">
            <g id="Group" transform="translate(179.000000, 69.000000)">
                <path d="M191.289062,39.796875 L191.367188,40.03125 C191.471355,45.3698184 189.596373,49.8359195 185.742188,53.4296875 C181.888002,57.0234555 176.796907,58.8203125 170.46875,58.8203125 C164.036426,58.8203125 158.795593,56.5416895 154.746094,51.984375 C150.696594,47.4270605 148.671875,41.6458684 148.671875,34.640625 L148.671875,24.5234375 C148.671875,17.5181941 150.696594,11.7304916 154.746094,7.16015625 C158.795593,2.5898209 164.036426,0.3046875 170.46875,0.3046875 C176.901074,0.3046875 182.01821,2.01690996 185.820312,5.44140625 C189.622415,8.86590254 191.471355,13.4036176 191.367188,19.0546875 L191.289062,19.2890625 L183.90625,19.2890625 C183.90625,15.3046676 182.734387,12.1536574 180.390625,9.8359375 C178.046863,7.51821758 174.739605,6.359375 170.46875,6.359375 C166.171854,6.359375 162.747409,8.09112852 160.195312,11.5546875 C157.643216,15.0182465 156.367188,19.3150785 156.367188,24.4453125 L156.367188,34.640625 C156.367188,39.8229426 157.643216,44.145816 160.195312,47.609375 C162.747409,51.072934 166.171854,52.8046875 170.46875,52.8046875 C174.739605,52.8046875 178.046863,51.6523553 180.390625,49.3476562 C182.734387,47.0429572 183.90625,43.8593953 183.90625,39.796875 L191.289062,39.796875 Z M244.765625,58 L237.070312,58 L237.070312,32.8828125 L209.453125,32.8828125 L209.453125,58 L201.757812,58 L201.757812,1.125 L209.453125,1.125 L209.453125,26.828125 L237.070312,26.828125 L237.070312,1.125 L244.765625,1.125 L244.765625,58 Z M290.351562,43.3515625 L266.523438,43.3515625 L261.132812,58 L253.28125,58 L275.273438,1.125 L281.875,1.125 L303.515625,58 L295.664062,58 L290.351562,43.3515625 Z M268.90625,36.90625 L288.046875,36.90625 L278.671875,11.0078125 L278.4375,11.0078125 L268.90625,36.90625 Z M319.453125,58 L311.71875,58 L311.71875,1.125 L319.453125,1.125 L319.453125,58 Z M376.953125,58 L369.257812,58 L341.875,14.015625 L341.640625,14.09375 L341.640625,58 L333.945312,58 L333.945312,1.125 L341.640625,1.125 L369.023438,45.03125 L369.257812,44.953125 L369.257812,1.125 L376.953125,1.125 L376.953125,58 Z" id="CHAIN" fill="#1F5C82"></path>
                <path d="M7.7265625,35.1875 L7.7265625,58 L0.03125,58 L0.03125,1.125 L21.7890625,1.125 C27.8568012,1.125 32.5702957,2.68748437 35.9296875,5.8125 C39.2890793,8.93751563 40.96875,13.0520578 40.96875,18.15625 C40.96875,23.3385676 39.2890793,27.4726408 35.9296875,30.5585938 C32.5702957,33.6445467 27.8568012,35.1875 21.7890625,35.1875 L7.7265625,35.1875 Z M7.7265625,29.171875 L21.7890625,29.171875 C25.6432484,29.171875 28.5208238,28.1367291 30.421875,26.0664062 C32.3229262,23.9960834 33.2734375,21.3854324 33.2734375,18.234375 C33.2734375,15.0833176 32.3164158,12.4531355 30.4023438,10.34375 C28.4882717,8.23436445 25.6172066,7.1796875 21.7890625,7.1796875 L7.7265625,7.1796875 L7.7265625,29.171875 Z M85.03125,31.6328125 L58.9765625,31.6328125 L58.9765625,51.984375 L89.015625,51.984375 L89.015625,58 L51.28125,58 L51.28125,1.125 L88.5859375,1.125 L88.5859375,7.1796875 L58.9765625,7.1796875 L58.9765625,25.578125 L85.03125,25.578125 L85.03125,31.6328125 Z M105.734375,35.1875 L105.734375,58 L98.0390625,58 L98.0390625,1.125 L119.796875,1.125 C125.864614,1.125 130.578108,2.68748437 133.9375,5.8125 C137.296892,8.93751563 138.976562,13.0520578 138.976562,18.15625 C138.976562,23.3385676 137.296892,27.4726408 133.9375,30.5585938 C130.578108,33.6445467 125.864614,35.1875 119.796875,35.1875 L105.734375,35.1875 Z M105.734375,29.171875 L119.796875,29.171875 C123.651061,29.171875 126.528636,28.1367291 128.429688,26.0664062 C130.330739,23.9960834 131.28125,21.3854324 131.28125,18.234375 C131.28125,15.0833176 130.324228,12.4531355 128.410156,10.34375 C126.496084,8.23436445 123.625019,7.1796875 119.796875,7.1796875 L105.734375,7.1796875 L105.734375,29.171875 Z" id="PEP" fill="#148907"></path>
            </g>
        </g>
    </g>
</svg>